<mxfile host="app.diagrams.net" agent="Mozilla/5.0 (Windows NT 10.0; Win64; x64) AppleWebKit/537.36 (KHTML, like Gecko) Chrome/137.0.0.0 Safari/537.36" version="27.1.6">
  <diagram name="Page-1" id="xvx4AbM4uloTdp_dUsA6">
    <mxGraphModel dx="1737" dy="910" grid="1" gridSize="10" guides="1" tooltips="1" connect="1" arrows="1" fold="1" page="1" pageScale="1" pageWidth="827" pageHeight="1169" math="0" shadow="0">
      <root>
        <mxCell id="0" />
        <mxCell id="1" parent="0" />
        <mxCell id="GmjAItTiiAMY3_y_7m7S-12" value="" style="edgeStyle=orthogonalEdgeStyle;rounded=0;orthogonalLoop=1;jettySize=auto;html=1;" edge="1" parent="1" source="GmjAItTiiAMY3_y_7m7S-1" target="GmjAItTiiAMY3_y_7m7S-7">
          <mxGeometry relative="1" as="geometry" />
        </mxCell>
        <mxCell id="GmjAItTiiAMY3_y_7m7S-14" style="edgeStyle=orthogonalEdgeStyle;rounded=0;orthogonalLoop=1;jettySize=auto;html=1;entryX=0.5;entryY=0;entryDx=0;entryDy=0;" edge="1" parent="1" source="GmjAItTiiAMY3_y_7m7S-1" target="GmjAItTiiAMY3_y_7m7S-9">
          <mxGeometry relative="1" as="geometry" />
        </mxCell>
        <mxCell id="GmjAItTiiAMY3_y_7m7S-16" style="edgeStyle=orthogonalEdgeStyle;rounded=0;orthogonalLoop=1;jettySize=auto;html=1;entryX=0;entryY=0.5;entryDx=0;entryDy=0;" edge="1" parent="1" source="GmjAItTiiAMY3_y_7m7S-1" target="GmjAItTiiAMY3_y_7m7S-2">
          <mxGeometry relative="1" as="geometry" />
        </mxCell>
        <mxCell id="GmjAItTiiAMY3_y_7m7S-17" style="edgeStyle=orthogonalEdgeStyle;rounded=0;orthogonalLoop=1;jettySize=auto;html=1;entryX=0.5;entryY=0;entryDx=0;entryDy=0;" edge="1" parent="1" source="GmjAItTiiAMY3_y_7m7S-1" target="GmjAItTiiAMY3_y_7m7S-4">
          <mxGeometry relative="1" as="geometry" />
        </mxCell>
        <mxCell id="GmjAItTiiAMY3_y_7m7S-1" value="Network edge" style="rounded=1;whiteSpace=wrap;html=1;" vertex="1" parent="1">
          <mxGeometry x="350" y="160" width="120" height="60" as="geometry" />
        </mxCell>
        <mxCell id="GmjAItTiiAMY3_y_7m7S-2" value="Mobile" style="shape=process;whiteSpace=wrap;html=1;backgroundOutline=1;rounded=1;direction=south;" vertex="1" parent="1">
          <mxGeometry x="90" y="310" width="60" height="120" as="geometry" />
        </mxCell>
        <mxCell id="GmjAItTiiAMY3_y_7m7S-4" value="Tablet" style="shape=process;whiteSpace=wrap;html=1;backgroundOutline=1;rounded=1;" vertex="1" parent="1">
          <mxGeometry x="190" y="320" width="120" height="60" as="geometry" />
        </mxCell>
        <mxCell id="GmjAItTiiAMY3_y_7m7S-7" value="Computers" style="sketch=0;aspect=fixed;pointerEvents=1;shadow=0;dashed=0;html=1;strokeColor=none;labelPosition=center;verticalLabelPosition=bottom;verticalAlign=top;align=center;fillColor=#00188D;shape=mxgraph.azure.computer" vertex="1" parent="1">
          <mxGeometry x="385" y="320" width="50" height="45" as="geometry" />
        </mxCell>
        <mxCell id="GmjAItTiiAMY3_y_7m7S-9" value="Servers" style="image;aspect=fixed;perimeter=ellipsePerimeter;html=1;align=center;shadow=0;dashed=0;spacingTop=3;image=img/lib/active_directory/generic_server.svg;" vertex="1" parent="1">
          <mxGeometry x="530" y="317.5" width="28.000000000000004" height="50" as="geometry" />
        </mxCell>
        <mxCell id="GmjAItTiiAMY3_y_7m7S-10" value="IOT" style="fontColor=#0066CC;verticalAlign=top;verticalLabelPosition=bottom;labelPosition=center;align=center;html=1;outlineConnect=0;fillColor=#CCCCCC;strokeColor=#6881B3;gradientColor=none;gradientDirection=north;strokeWidth=2;shape=mxgraph.networks.security_camera;" vertex="1" parent="1">
          <mxGeometry x="650" y="326.25" width="60" height="47.5" as="geometry" />
        </mxCell>
        <mxCell id="GmjAItTiiAMY3_y_7m7S-15" style="edgeStyle=orthogonalEdgeStyle;rounded=0;orthogonalLoop=1;jettySize=auto;html=1;entryX=0.3;entryY=0;entryDx=0;entryDy=0;entryPerimeter=0;" edge="1" parent="1" source="GmjAItTiiAMY3_y_7m7S-1" target="GmjAItTiiAMY3_y_7m7S-10">
          <mxGeometry relative="1" as="geometry" />
        </mxCell>
        <mxCell id="GmjAItTiiAMY3_y_7m7S-21" style="edgeStyle=orthogonalEdgeStyle;rounded=0;orthogonalLoop=1;jettySize=auto;html=1;" edge="1" parent="1" source="GmjAItTiiAMY3_y_7m7S-18">
          <mxGeometry relative="1" as="geometry">
            <mxPoint x="1072.5" y="240" as="targetPoint" />
          </mxGeometry>
        </mxCell>
        <mxCell id="GmjAItTiiAMY3_y_7m7S-22" style="edgeStyle=orthogonalEdgeStyle;rounded=0;orthogonalLoop=1;jettySize=auto;html=1;" edge="1" parent="1" source="GmjAItTiiAMY3_y_7m7S-18" target="GmjAItTiiAMY3_y_7m7S-20">
          <mxGeometry relative="1" as="geometry">
            <mxPoint x="1442.5" y="240" as="targetPoint" />
          </mxGeometry>
        </mxCell>
        <mxCell id="GmjAItTiiAMY3_y_7m7S-18" value="Host" style="rounded=1;whiteSpace=wrap;html=1;" vertex="1" parent="1">
          <mxGeometry x="1263.5" y="160" width="120" height="60" as="geometry" />
        </mxCell>
        <mxCell id="GmjAItTiiAMY3_y_7m7S-26" style="edgeStyle=orthogonalEdgeStyle;rounded=0;orthogonalLoop=1;jettySize=auto;html=1;entryX=0;entryY=0.5;entryDx=0;entryDy=0;" edge="1" parent="1" source="GmjAItTiiAMY3_y_7m7S-19" target="GmjAItTiiAMY3_y_7m7S-23">
          <mxGeometry relative="1" as="geometry" />
        </mxCell>
        <mxCell id="GmjAItTiiAMY3_y_7m7S-27" value="" style="edgeStyle=orthogonalEdgeStyle;rounded=0;orthogonalLoop=1;jettySize=auto;html=1;" edge="1" parent="1" source="GmjAItTiiAMY3_y_7m7S-19" target="GmjAItTiiAMY3_y_7m7S-24">
          <mxGeometry relative="1" as="geometry" />
        </mxCell>
        <mxCell id="GmjAItTiiAMY3_y_7m7S-19" value="Clients" style="rounded=1;whiteSpace=wrap;html=1;" vertex="1" parent="1">
          <mxGeometry x="1012.5" y="245" width="120" height="60" as="geometry" />
        </mxCell>
        <mxCell id="GmjAItTiiAMY3_y_7m7S-38" style="edgeStyle=orthogonalEdgeStyle;rounded=0;orthogonalLoop=1;jettySize=auto;html=1;entryX=0.25;entryY=0;entryDx=0;entryDy=0;" edge="1" parent="1" source="GmjAItTiiAMY3_y_7m7S-20" target="GmjAItTiiAMY3_y_7m7S-32">
          <mxGeometry relative="1" as="geometry" />
        </mxCell>
        <mxCell id="GmjAItTiiAMY3_y_7m7S-40" style="edgeStyle=orthogonalEdgeStyle;rounded=0;orthogonalLoop=1;jettySize=auto;html=1;" edge="1" parent="1" source="GmjAItTiiAMY3_y_7m7S-20" target="GmjAItTiiAMY3_y_7m7S-34">
          <mxGeometry relative="1" as="geometry" />
        </mxCell>
        <mxCell id="GmjAItTiiAMY3_y_7m7S-20" value="Servers" style="rounded=1;whiteSpace=wrap;html=1;" vertex="1" parent="1">
          <mxGeometry x="1492.5" y="245" width="120" height="60" as="geometry" />
        </mxCell>
        <mxCell id="GmjAItTiiAMY3_y_7m7S-23" value="Mobile" style="shape=process;whiteSpace=wrap;html=1;backgroundOutline=1;rounded=1;direction=south;" vertex="1" parent="1">
          <mxGeometry x="920" y="390" width="60" height="120" as="geometry" />
        </mxCell>
        <mxCell id="GmjAItTiiAMY3_y_7m7S-24" value="Tablet" style="shape=process;whiteSpace=wrap;html=1;backgroundOutline=1;rounded=1;" vertex="1" parent="1">
          <mxGeometry x="1012.5" y="400" width="120" height="60" as="geometry" />
        </mxCell>
        <mxCell id="GmjAItTiiAMY3_y_7m7S-25" value="Computers" style="sketch=0;aspect=fixed;pointerEvents=1;shadow=0;dashed=0;html=1;strokeColor=none;labelPosition=center;verticalLabelPosition=bottom;verticalAlign=top;align=center;fillColor=#00188D;shape=mxgraph.azure.computer" vertex="1" parent="1">
          <mxGeometry x="1177.5" y="400" width="50" height="45" as="geometry" />
        </mxCell>
        <mxCell id="GmjAItTiiAMY3_y_7m7S-28" style="edgeStyle=orthogonalEdgeStyle;rounded=0;orthogonalLoop=1;jettySize=auto;html=1;entryX=0.5;entryY=0;entryDx=0;entryDy=0;entryPerimeter=0;" edge="1" parent="1" source="GmjAItTiiAMY3_y_7m7S-19" target="GmjAItTiiAMY3_y_7m7S-25">
          <mxGeometry relative="1" as="geometry" />
        </mxCell>
        <mxCell id="GmjAItTiiAMY3_y_7m7S-30" value="" style="points=[];aspect=fixed;html=1;align=center;shadow=0;dashed=0;fillColor=#FF6A00;strokeColor=none;shape=mxgraph.alibaba_cloud.domain_and_website;" vertex="1" parent="1">
          <mxGeometry x="1360.85" y="380" width="51.3" height="41.4" as="geometry" />
        </mxCell>
        <mxCell id="GmjAItTiiAMY3_y_7m7S-31" value="Webpages" style="text;html=1;align=center;verticalAlign=middle;resizable=0;points=[];autosize=1;strokeColor=none;fillColor=none;" vertex="1" parent="1">
          <mxGeometry x="1345.85" y="421.4" width="80" height="30" as="geometry" />
        </mxCell>
        <mxCell id="GmjAItTiiAMY3_y_7m7S-32" value="Servers" style="image;aspect=fixed;perimeter=ellipsePerimeter;html=1;align=center;shadow=0;dashed=0;spacingTop=3;image=img/lib/active_directory/generic_server.svg;" vertex="1" parent="1">
          <mxGeometry x="1452.5" y="375.70000000000005" width="28.000000000000004" height="50" as="geometry" />
        </mxCell>
        <mxCell id="GmjAItTiiAMY3_y_7m7S-33" value="Email" style="html=1;verticalLabelPosition=bottom;align=center;labelBackgroundColor=#ffffff;verticalAlign=top;strokeWidth=2;strokeColor=#0080F0;shadow=0;dashed=0;shape=mxgraph.ios7.icons.mail;" vertex="1" parent="1">
          <mxGeometry x="1541.5" y="383.5" width="30" height="16.5" as="geometry" />
        </mxCell>
        <mxCell id="GmjAItTiiAMY3_y_7m7S-34" value="" style="sketch=0;pointerEvents=1;shadow=0;dashed=0;html=1;strokeColor=none;fillColor=#505050;labelPosition=center;verticalLabelPosition=bottom;verticalAlign=top;outlineConnect=0;align=center;shape=mxgraph.office.concepts.video_play;" vertex="1" parent="1">
          <mxGeometry x="1622.5" y="385.70000000000005" width="50" height="40" as="geometry" />
        </mxCell>
        <mxCell id="GmjAItTiiAMY3_y_7m7S-35" style="edgeStyle=orthogonalEdgeStyle;rounded=0;orthogonalLoop=1;jettySize=auto;html=1;entryX=0.347;entryY=-0.035;entryDx=0;entryDy=0;entryPerimeter=0;" edge="1" parent="1" source="GmjAItTiiAMY3_y_7m7S-20" target="GmjAItTiiAMY3_y_7m7S-30">
          <mxGeometry relative="1" as="geometry" />
        </mxCell>
        <mxCell id="GmjAItTiiAMY3_y_7m7S-39" style="edgeStyle=orthogonalEdgeStyle;rounded=0;orthogonalLoop=1;jettySize=auto;html=1;entryX=0.395;entryY=0.198;entryDx=0;entryDy=0;entryPerimeter=0;" edge="1" parent="1" source="GmjAItTiiAMY3_y_7m7S-20" target="GmjAItTiiAMY3_y_7m7S-33">
          <mxGeometry relative="1" as="geometry" />
        </mxCell>
        <mxCell id="GmjAItTiiAMY3_y_7m7S-44" value="" style="edgeStyle=orthogonalEdgeStyle;rounded=0;orthogonalLoop=1;jettySize=auto;html=1;" edge="1" parent="1" source="GmjAItTiiAMY3_y_7m7S-41" target="GmjAItTiiAMY3_y_7m7S-43">
          <mxGeometry relative="1" as="geometry" />
        </mxCell>
        <mxCell id="GmjAItTiiAMY3_y_7m7S-46" value="" style="edgeStyle=orthogonalEdgeStyle;rounded=0;orthogonalLoop=1;jettySize=auto;html=1;" edge="1" parent="1" source="GmjAItTiiAMY3_y_7m7S-41" target="GmjAItTiiAMY3_y_7m7S-45">
          <mxGeometry relative="1" as="geometry" />
        </mxCell>
        <mxCell id="GmjAItTiiAMY3_y_7m7S-48" value="" style="edgeStyle=orthogonalEdgeStyle;rounded=0;orthogonalLoop=1;jettySize=auto;html=1;" edge="1" parent="1" source="GmjAItTiiAMY3_y_7m7S-41" target="GmjAItTiiAMY3_y_7m7S-47">
          <mxGeometry relative="1" as="geometry" />
        </mxCell>
        <mxCell id="GmjAItTiiAMY3_y_7m7S-41" value="Access Networks" style="rounded=1;whiteSpace=wrap;html=1;" vertex="1" parent="1">
          <mxGeometry x="775" y="610" width="120" height="60" as="geometry" />
        </mxCell>
        <mxCell id="GmjAItTiiAMY3_y_7m7S-52" style="edgeStyle=orthogonalEdgeStyle;rounded=0;orthogonalLoop=1;jettySize=auto;html=1;" edge="1" parent="1" source="GmjAItTiiAMY3_y_7m7S-43" target="GmjAItTiiAMY3_y_7m7S-51">
          <mxGeometry relative="1" as="geometry" />
        </mxCell>
        <mxCell id="GmjAItTiiAMY3_y_7m7S-55" style="edgeStyle=orthogonalEdgeStyle;rounded=0;orthogonalLoop=1;jettySize=auto;html=1;" edge="1" parent="1" source="GmjAItTiiAMY3_y_7m7S-43" target="GmjAItTiiAMY3_y_7m7S-53">
          <mxGeometry relative="1" as="geometry" />
        </mxCell>
        <mxCell id="GmjAItTiiAMY3_y_7m7S-43" value="Home Access Network" style="whiteSpace=wrap;html=1;rounded=1;" vertex="1" parent="1">
          <mxGeometry x="445" y="770" width="120" height="60" as="geometry" />
        </mxCell>
        <mxCell id="GmjAItTiiAMY3_y_7m7S-61" value="" style="edgeStyle=orthogonalEdgeStyle;rounded=0;orthogonalLoop=1;jettySize=auto;html=1;" edge="1" parent="1" source="GmjAItTiiAMY3_y_7m7S-45" target="GmjAItTiiAMY3_y_7m7S-60">
          <mxGeometry relative="1" as="geometry" />
        </mxCell>
        <mxCell id="GmjAItTiiAMY3_y_7m7S-45" value="Institutional Access Network" style="whiteSpace=wrap;html=1;rounded=1;" vertex="1" parent="1">
          <mxGeometry x="775" y="770" width="120" height="60" as="geometry" />
        </mxCell>
        <mxCell id="GmjAItTiiAMY3_y_7m7S-47" value="Mobile Access Network" style="whiteSpace=wrap;html=1;rounded=1;" vertex="1" parent="1">
          <mxGeometry x="1055" y="750" width="120" height="60" as="geometry" />
        </mxCell>
        <mxCell id="GmjAItTiiAMY3_y_7m7S-51" value="DSL" style="sketch=0;verticalLabelPosition=bottom;sketch=0;aspect=fixed;html=1;verticalAlign=top;strokeColor=none;fillColor=#000000;align=center;outlineConnect=0;pointerEvents=1;shape=mxgraph.citrix2.wifi_router;" vertex="1" parent="1">
          <mxGeometry x="340" y="920" width="49.9" height="50" as="geometry" />
        </mxCell>
        <mxCell id="GmjAItTiiAMY3_y_7m7S-53" value="Cable Internet" style="shape=image;html=1;verticalAlign=top;verticalLabelPosition=bottom;labelBackgroundColor=#ffffff;imageAspect=0;aspect=fixed;image=https://cdn1.iconfinder.com/data/icons/computer-hardware-line-vol-1/52/cable__extension__plug__electric__power__switch__electricplug-128.png" vertex="1" parent="1">
          <mxGeometry x="480" y="910.5" width="52" height="52" as="geometry" />
        </mxCell>
        <mxCell id="GmjAItTiiAMY3_y_7m7S-54" value="Fiber Optic" style="verticalLabelPosition=bottom;shadow=0;dashed=0;align=center;html=1;verticalAlign=top;shape=mxgraph.electrical.transmission.optical_fiber2;" vertex="1" parent="1">
          <mxGeometry x="615" y="920" width="50" height="29.5" as="geometry" />
        </mxCell>
        <mxCell id="GmjAItTiiAMY3_y_7m7S-56" style="edgeStyle=orthogonalEdgeStyle;rounded=0;orthogonalLoop=1;jettySize=auto;html=1;entryX=0.5;entryY=0;entryDx=0;entryDy=0;entryPerimeter=0;" edge="1" parent="1" source="GmjAItTiiAMY3_y_7m7S-43" target="GmjAItTiiAMY3_y_7m7S-54">
          <mxGeometry relative="1" as="geometry" />
        </mxCell>
        <mxCell id="GmjAItTiiAMY3_y_7m7S-57" value="Cellular Data" style="fontColor=#0066CC;verticalAlign=top;verticalLabelPosition=bottom;labelPosition=center;align=center;html=1;outlineConnect=0;fillColor=#CCCCCC;strokeColor=#6881B3;gradientColor=none;gradientDirection=north;strokeWidth=2;shape=mxgraph.networks.radio_tower;" vertex="1" parent="1">
          <mxGeometry x="1100.75" y="879" width="28.5" height="47.5" as="geometry" />
        </mxCell>
        <mxCell id="GmjAItTiiAMY3_y_7m7S-58" style="edgeStyle=orthogonalEdgeStyle;rounded=0;orthogonalLoop=1;jettySize=auto;html=1;entryX=0.5;entryY=0.15;entryDx=0;entryDy=0;entryPerimeter=0;" edge="1" parent="1" source="GmjAItTiiAMY3_y_7m7S-47" target="GmjAItTiiAMY3_y_7m7S-57">
          <mxGeometry relative="1" as="geometry" />
        </mxCell>
        <mxCell id="GmjAItTiiAMY3_y_7m7S-60" value="Servers" style="whiteSpace=wrap;html=1;rounded=1;" vertex="1" parent="1">
          <mxGeometry x="775" y="882.75" width="120" height="60" as="geometry" />
        </mxCell>
      </root>
    </mxGraphModel>
  </diagram>
</mxfile>
